<?xml version="1.0" encoding="utf-8"?>
<svg viewBox="152 136.849 196.845 226.302" xmlns="http://www.w3.org/2000/svg">
  <defs>
    <radialGradient gradientUnits="userSpaceOnUse" cx="250.422" cy="250" r="98.422" id="gradient-1">
      <stop offset="0" style="stop-color: rgba(162, 204, 241, 1)"/>
      <stop offset="1" style="stop-color: rgba(73, 156, 228, 1)"/>
    </radialGradient>
    <linearGradient gradientUnits="userSpaceOnUse" x1="250" y1="136.849" x2="250" y2="363.151" id="gradient-3">
      <stop offset="0" style="stop-color: rgba(54, 117, 168, 1)"/>
      <stop offset="1" style="stop-color: rgba(29, 63, 91, 1)"/>
    </linearGradient>
    <radialGradient gradientUnits="userSpaceOnUse" cx="249.972" cy="203.833" r="80" id="gradient-5">
      <stop offset="0" style="stop-color: rgba(54, 117, 168, 1)"/>
      <stop offset="1" style="stop-color: rgba(29, 63, 91, 1)"/>
    </radialGradient>
    <linearGradient gradientUnits="userSpaceOnUse" x1="249.959" y1="227.957" x2="249.959" y2="310.76" id="gradient-0" spreadMethod="pad">
      <stop offset="0" style="stop-color: rgba(66, 138, 202, 1)"/>
      <stop offset="1" style="stop-color: rgba(36, 86, 129, 1)"/>
    </linearGradient>
  </defs>
  <g transform="matrix(1, 0, 0, 1, -0.000006, 0.000241)">
    <path d="M 341.574 301.84 L 340.185 300.28 L 340.953 301.508 L 341.574 301.84 Z M 341.316 303.929 L 340.238 311.083 L 265.204 354.402 L 250.027 363.151 L 234.849 354.402 L 159.815 311.083 L 152 306.575 L 152 193.424 L 159.815 188.916 L 233.916 146.132 L 250 136.849 L 266.084 146.132 L 340.185 188.916 L 348 193.424 C 348.002 193.427 352.345 324.148 341.316 303.929 Z" style="paint-order: fill; fill: url(#gradient-1);"/>
  </g>
  <path class="st2" d="M 159.815 302.361 L 250 354.428 L 340.185 302.361 L 340.185 198.199 L 326.608 190.357 L 250 146.132 L 173.152 190.49 L 159.815 198.199 L 159.815 302.361 Z M 348 306.602 L 340.238 311.083 L 265.204 354.402 L 250.027 363.151 L 234.849 354.402 L 159.815 311.083 L 152 306.575 L 152 193.424 L 159.815 188.916 L 233.916 146.132 L 250 136.849 L 266.084 146.132 L 340.185 188.916 L 348 193.424 L 348 306.602 Z" style="fill: url(#gradient-3); stroke: rgb(27, 59, 85); stroke-width: 0.5px;"/>
  <path d="M 183.837 195.083 C 184.931 195.083 185.833 195.465 186.599 196.231 C 187.364 196.997 187.747 197.927 187.747 198.993 L 187.747 212.557 L 173.883 212.557 C 172.789 212.557 171.887 212.174 171.121 211.408 C 170.355 210.642 169.972 209.713 169.972 208.646 L 169.972 202.193 L 184.493 202.193 L 184.493 198.993 C 184.493 198.802 184.438 198.665 184.302 198.528 C 184.165 198.391 184.028 198.337 183.837 198.337 L 169.972 198.337 L 169.972 195.083 L 183.837 195.083 Z M 184.493 209.302 L 184.493 205.447 L 173.227 205.447 L 173.227 208.646 C 173.227 208.838 173.281 208.974 173.418 209.111 C 173.555 209.248 173.692 209.302 173.883 209.302 L 184.493 209.302 Z M 215.859 195.083 L 219.332 195.083 L 212.769 212.557 L 210.116 212.557 L 204.237 199.567 L 198.686 212.557 L 198.631 212.529 L 198.658 212.557 L 196.033 212.557 L 189.169 195.083 L 192.615 195.083 L 197.346 206.677 L 202.377 195.083 L 206.096 195.083 L 211.429 206.677 L 215.859 195.083 Z M 234.235 195.083 C 235.329 195.083 236.231 195.465 236.997 196.231 C 237.763 196.997 238.146 197.927 238.146 198.993 L 238.146 205.447 L 223.625 205.447 L 223.625 208.646 C 223.625 208.838 223.68 208.974 223.816 209.111 C 223.953 209.248 224.09 209.302 224.281 209.302 L 238.146 209.302 L 238.146 212.557 L 224.281 212.557 C 223.187 212.557 222.285 212.174 221.519 211.408 C 220.754 210.642 220.371 209.713 220.371 208.646 L 220.371 198.993 C 220.371 197.899 220.754 196.997 221.519 196.231 C 222.285 195.465 223.215 195.083 224.281 195.083 L 234.235 195.083 Z M 223.625 202.193 L 234.891 202.193 L 234.891 198.993 C 234.891 198.802 234.837 198.665 234.7 198.528 C 234.563 198.391 234.427 198.337 234.235 198.337 L 224.281 198.337 C 224.09 198.337 223.953 198.391 223.816 198.528 C 223.68 198.665 223.625 198.802 223.625 198.993 L 223.625 202.193 Z M 258.901 199.02 L 258.901 199.677 L 255.647 199.677 L 255.647 199.02 C 255.647 198.829 255.592 198.692 255.455 198.556 C 255.319 198.419 255.182 198.364 254.991 198.364 L 245.037 198.364 C 244.845 198.364 244.709 198.419 244.572 198.556 C 244.435 198.692 244.38 198.829 244.38 199.02 L 244.38 201.564 C 244.38 201.755 244.435 201.892 244.572 202.028 C 244.709 202.165 244.845 202.22 245.037 202.22 L 254.991 202.22 C 256.084 202.22 256.987 202.603 257.753 203.368 C 258.518 204.134 258.901 205.064 258.901 206.13 L 258.901 208.674 C 258.901 209.767 258.518 210.67 257.753 211.435 C 256.987 212.201 256.057 212.584 254.991 212.584 L 245.037 212.584 C 243.943 212.584 243.04 212.201 242.275 211.435 C 241.509 210.67 241.126 209.74 241.126 208.674 L 241.126 208.017 L 244.38 208.017 L 244.38 208.674 C 244.38 208.865 244.435 209.002 244.572 209.138 C 244.709 209.275 244.845 209.33 245.037 209.33 L 254.991 209.33 C 255.182 209.33 255.319 209.275 255.455 209.138 C 255.592 209.002 255.647 208.865 255.647 208.674 L 255.647 206.13 C 255.647 205.939 255.592 205.802 255.455 205.665 C 255.319 205.529 255.182 205.474 254.991 205.474 L 245.037 205.474 C 243.943 205.474 243.04 205.091 242.275 204.326 C 241.509 203.56 241.126 202.63 241.126 201.564 L 241.126 199.02 C 241.126 197.927 241.509 197.024 242.275 196.259 C 243.04 195.493 243.97 195.11 245.037 195.11 L 254.991 195.11 C 256.084 195.11 256.987 195.493 257.753 196.259 C 258.518 196.997 258.901 197.927 258.901 199.02 Z M 265.792 195.083 L 275.746 195.083 C 276.84 195.083 277.742 195.465 278.508 196.231 C 279.274 196.997 279.656 197.927 279.656 198.993 L 279.656 208.646 C 279.656 209.74 279.274 210.642 278.508 211.408 C 277.742 212.174 276.813 212.557 275.746 212.557 L 265.792 212.557 C 264.698 212.557 263.796 212.174 263.03 211.408 C 262.265 210.642 261.882 209.713 261.882 208.646 L 261.882 198.993 C 261.882 197.899 262.265 196.997 263.03 196.231 C 263.796 195.465 264.726 195.083 265.792 195.083 Z M 275.746 198.337 L 265.792 198.337 C 265.601 198.337 265.464 198.391 265.327 198.528 C 265.191 198.665 265.136 198.802 265.136 198.993 L 265.136 208.646 C 265.136 208.838 265.191 208.974 265.327 209.111 C 265.464 209.248 265.601 209.302 265.792 209.302 L 275.746 209.302 C 275.937 209.302 276.074 209.248 276.211 209.111 C 276.348 208.974 276.402 208.838 276.402 208.646 L 276.402 198.993 C 276.402 198.802 276.348 198.665 276.211 198.528 C 276.074 198.419 275.937 198.337 275.746 198.337 Z M 305.143 195.083 C 306.237 195.083 307.139 195.465 307.905 196.231 C 308.67 196.997 309.053 197.927 309.053 198.993 L 309.053 212.557 L 305.826 212.557 L 305.826 198.993 C 305.826 198.802 305.772 198.665 305.635 198.528 C 305.498 198.391 305.334 198.337 305.143 198.337 L 298.252 198.337 C 298.06 198.337 297.923 198.391 297.787 198.528 C 297.65 198.665 297.595 198.802 297.595 198.993 L 297.595 212.557 L 294.341 212.557 L 294.341 198.993 C 294.341 198.802 294.287 198.665 294.15 198.528 C 294.013 198.391 293.876 198.337 293.685 198.337 L 286.766 198.337 C 286.575 198.337 286.438 198.391 286.302 198.528 C 286.165 198.665 286.11 198.802 286.11 198.993 L 286.11 212.557 L 282.856 212.557 L 282.856 195.083 L 305.143 195.083 Z M 326.062 195.083 C 327.156 195.083 328.059 195.465 328.824 196.231 C 329.59 196.997 329.973 197.927 329.973 198.993 L 329.973 205.447 L 315.452 205.447 L 315.452 208.646 C 315.452 208.838 315.507 208.974 315.644 209.111 C 315.78 209.248 315.917 209.302 316.108 209.302 L 329.973 209.302 L 329.973 212.557 L 316.108 212.557 C 315.015 212.557 314.112 212.174 313.347 211.408 C 312.581 210.642 312.198 209.713 312.198 208.646 L 312.198 198.993 C 312.198 197.899 312.581 196.997 313.347 196.231 C 314.112 195.465 315.042 195.083 316.108 195.083 L 326.062 195.083 Z M 315.452 202.193 L 326.719 202.193 L 326.719 198.993 C 326.719 198.802 326.664 198.665 326.527 198.528 C 326.39 198.391 326.254 198.337 326.062 198.337 L 316.108 198.337 C 315.917 198.337 315.78 198.391 315.644 198.528 C 315.507 198.665 315.452 198.802 315.452 198.993 L 315.452 202.193 Z" style="fill: url(#gradient-5); stroke: rgb(18, 40, 57); stroke-width: 0.5px;"/>
  <path d="M 329.945 265.612 L 329.945 290.415 C 329.945 301.626 319.143 310.76 305.881 310.76 L 280.586 310.76 C 267.323 310.76 256.521 301.626 256.521 290.415 L 256.521 274.117 L 243.395 274.117 L 243.395 290.415 C 243.395 301.626 232.594 310.76 219.331 310.76 L 194.036 310.76 C 180.774 310.76 169.972 301.626 169.972 290.415 L 169.972 265.612 L 169.999 265.612 L 211.018 227.957 L 216.788 234.246 L 182.606 265.612 L 317.339 265.612 L 283.156 234.274 L 288.926 227.984 L 329.945 265.612 Z" style="stroke-linecap: round; fill: url(#gradient-0); paint-order: fill; stroke-width: 0.5px; stroke: rgb(23, 50, 72);"/>
  <path class="st5" d="M 190.285 288.793 L 190.285 288.793 C 190.044 288.785 190.205 288.793 190.285 288.793 Z M 190.278 288.793 C 190.044 288.785 190.146 288.793 190.226 288.793 L 190.351 288.793 L 190.343 288.793 L 190.278 288.793 C 190.329 288.793 190.351 288.8 190.278 288.793 Z M 190.343 288.793 C 192.889 288.851 195.551 288.26 196.325 285.233 C 196.828 283.278 195.573 281.856 194.465 280.426 C 194.457 280.419 194.45 280.411 194.45 280.397 C 194.406 280.214 193.203 279.106 192.867 278.69 C 192.867 278.683 192.86 278.683 192.853 278.675 C 192.692 278.559 192.524 277.968 192.444 277.64 C 192.408 277.501 192.408 277.363 192.437 277.224 C 192.728 275.736 192.889 274.649 194.866 274.97 C 196.288 275.203 195.551 277.29 196.317 277.494 L 196.332 277.494 C 196.791 277.538 197.689 276.436 197.82 276.064 C 198.33 274.62 195.384 273.737 194.486 273.796 C 192.685 273.905 191.503 274.883 190.781 276.495 C 189.453 279.463 191.933 281.44 193.436 283.475 C 194.574 285.014 194.523 286.385 193.13 287.706 C 191.598 289.157 189.818 287.159 189.614 285.751 C 189.432 284.46 189.446 283.563 188.366 285.204 C 187.367 286.728 188.396 288.712 190.343 288.793 L 190.343 288.793 Z M 230.425 281.746 L 230.425 281.761 C 230.396 282.074 230.33 282.381 230.221 282.68 C 230.031 283.176 229.79 283.657 229.499 284.102 C 229.141 284.649 228.951 284.868 228.58 285.35 C 227.879 286.261 227.339 286.94 226.523 287.808 C 225.385 289.011 224.115 290.39 222.729 291.375 C 220.753 292.79 218.258 293.176 215.895 293.395 C 208.98 294.022 198.805 294.956 196.66 302.44 C 196.645 302.484 196.609 302.506 196.565 302.491 C 196.543 302.484 196.529 302.476 196.521 302.455 C 194.421 298.866 189.906 296.233 185.719 296.357 C 185.675 296.364 185.638 296.342 185.631 296.298 C 185.624 296.254 185.646 296.218 185.69 296.211 C 196.47 290.857 207.485 293.424 219.126 291.346 C 222.036 290.828 224.48 288.916 226.238 286.619 C 226.909 285.751 227.77 285.014 228.361 284.088 C 228.455 283.935 228.944 282.716 228.185 283.234 C 227.011 284.029 226.019 285.014 224.743 285.634 C 224.684 285.663 224.619 285.692 224.553 285.714 C 224.531 285.722 224.516 285.743 224.509 285.765 C 224.327 286.363 224.072 286.94 223.743 287.472 C 223.357 288.078 222.839 288.596 222.226 288.982 C 221.657 289.361 220.994 289.58 220.315 289.631 C 220.22 289.639 220.133 289.639 220.038 289.639 C 219.498 289.639 219.148 289.595 218.732 289.383 C 218.2 289.106 218.032 288.654 217.996 288.107 C 217.974 287.779 218.178 287.421 218.346 287.151 C 218.514 286.881 218.783 286.582 218.973 286.502 L 218.988 286.495 C 219.936 285.795 221.548 285.743 222.642 285.445 C 222.671 285.437 222.693 285.415 222.693 285.393 L 223.24 283.395 C 223.255 283.351 223.225 283.315 223.189 283.3 C 223.16 283.293 223.123 283.307 223.109 283.329 C 222.832 283.738 222.525 284.124 222.197 284.489 C 221.767 284.941 221.431 285.218 221.176 285.32 C 220.884 285.43 220.578 285.495 220.271 285.51 C 219.907 285.532 219.593 285.386 219.352 285.08 C 219.112 284.774 218.98 284.321 218.951 283.723 C 218.944 283.628 218.944 283.519 218.951 283.402 C 218.958 283.358 218.937 283.322 218.9 283.307 C 218.856 283.3 218.82 283.322 218.805 283.358 C 218.689 283.585 218.572 283.796 218.455 283.986 C 218.112 284.584 217.682 285.131 217.193 285.62 C 216.712 286.101 216.245 286.356 215.814 286.385 C 215.005 286.436 214.567 285.977 214.509 285.014 C 214.45 284.095 214.815 282.206 215.603 279.39 C 215.647 279.266 215.661 279.135 215.654 279.011 C 215.639 278.756 215.494 278.654 215.195 278.675 C 214.852 278.705 214.524 278.843 214.254 279.069 C 213.918 279.354 213.641 279.704 213.444 280.098 C 213.203 280.535 212.992 280.988 212.795 281.447 C 212.59 281.951 212.423 282.476 212.292 283.008 C 212.146 283.599 212.022 284.095 211.941 284.482 C 211.854 284.883 211.774 285.306 211.693 285.743 C 211.635 286.05 211.569 286.429 211.555 286.488 L 211.54 286.546 L 209.534 286.677 L 209.527 286.604 C 209.512 286.429 209.658 285.809 209.95 284.722 C 209.892 284.824 209.833 284.927 209.775 285.029 C 209.432 285.627 209.009 286.174 208.52 286.663 C 208.039 287.144 207.572 287.399 207.142 287.429 C 207.113 287.429 207.084 287.429 207.054 287.429 C 206.347 287.429 205.946 286.874 205.88 285.78 C 205.865 285.561 205.858 285.342 205.865 285.116 C 205.873 285.072 205.851 285.036 205.814 285.021 C 205.77 285.014 205.734 285.036 205.72 285.072 C 204.618 287.093 203.626 288.114 202.707 288.173 C 201.897 288.223 201.46 287.742 201.394 286.736 C 201.321 285.62 201.627 283.986 202.306 281.885 C 202.452 281.367 202.517 281.01 202.503 280.82 C 202.481 280.528 202.349 280.492 202.24 280.492 L 202.211 280.492 C 202.116 280.499 201.912 280.557 201.481 280.827 C 201.102 281.075 200.774 281.382 200.504 281.739 C 200.19 282.148 199.942 282.607 199.76 283.088 C 199.571 283.599 199.417 284.044 199.308 284.416 C 199.198 284.788 199.089 285.247 198.98 285.773 C 198.87 286.298 198.775 286.75 198.688 287.086 C 198.6 287.421 198.513 287.808 198.425 288.253 L 198.411 288.311 L 196.485 288.435 C 196.441 288.435 196.405 288.406 196.405 288.362 C 196.405 288.355 196.405 288.348 196.405 288.333 L 196.405 288.333 C 196.689 287.348 197.09 285.751 197.601 283.592 C 198.112 281.433 198.578 279.704 198.958 278.464 C 199.286 277.384 199.673 276.319 200.125 275.291 C 200.475 274.488 200.949 273.737 201.525 273.074 C 202.072 272.461 202.685 272.133 203.334 272.089 C 204.02 272.045 204.385 272.388 204.436 273.096 C 204.465 273.569 204.326 274.204 204.027 274.999 C 203.48 276.407 202.568 278.048 201.306 279.879 C 201.277 279.908 201.277 279.959 201.306 279.988 C 201.336 280.018 201.387 280.018 201.416 279.988 C 201.635 279.821 201.868 279.668 202.116 279.543 C 202.481 279.354 202.882 279.244 203.298 279.208 C 204.078 279.157 204.494 279.514 204.545 280.266 C 204.567 280.543 204.538 280.82 204.458 281.082 C 204.385 281.323 204.304 281.608 204.209 281.921 C 204.122 282.235 204.049 282.498 203.991 282.694 C 203.932 282.899 203.859 283.169 203.765 283.512 C 203.67 283.854 203.597 284.153 203.553 284.387 C 203.422 284.978 203.371 285.452 203.393 285.795 C 203.422 286.232 203.597 286.232 203.655 286.232 L 203.677 286.232 C 204.414 286.188 205.282 284.905 206.266 282.425 C 206.274 282.41 206.274 282.403 206.281 282.388 C 206.507 281.571 206.792 280.769 207.134 279.996 C 207.543 279.098 208.039 278.624 208.623 278.588 L 209.79 278.53 C 209.833 278.53 209.87 278.559 209.87 278.602 C 209.87 278.624 209.862 278.646 209.848 278.661 L 209.848 278.661 C 209.666 278.836 209.425 279.303 209.133 280.054 C 208.827 280.864 208.615 281.418 208.477 281.79 C 208.338 282.177 208.178 282.702 208.01 283.358 C 207.842 284.015 207.769 284.54 207.798 284.934 C 207.835 285.452 208.032 285.452 208.097 285.452 L 208.119 285.452 C 208.221 285.445 208.411 285.372 208.754 285.058 C 209.016 284.817 209.242 284.547 209.432 284.248 C 209.607 283.964 209.797 283.606 210.008 283.169 C 210.22 282.731 210.402 282.352 210.555 282.031 C 210.723 281.688 210.789 281.571 210.833 281.528 L 210.928 281.352 C 211.285 279.908 211.453 278.894 211.416 278.332 C 211.416 278.238 211.394 278.143 211.351 278.055 L 211.351 278.055 C 211.329 278.026 211.329 277.975 211.365 277.953 C 211.38 277.946 211.394 277.939 211.409 277.939 L 212.219 277.888 C 212.693 277.859 212.992 277.888 213.145 277.99 C 213.298 278.092 213.393 278.26 213.4 278.435 C 213.4 278.61 213.386 278.792 213.349 278.967 C 213.342 279.011 213.371 279.047 213.415 279.055 C 213.437 279.062 213.466 279.047 213.481 279.033 C 214.392 278.085 215.341 277.574 216.318 277.516 C 217.098 277.465 217.521 277.837 217.565 278.617 C 217.58 278.865 217.565 279.113 217.514 279.361 C 217.463 279.609 217.339 280.091 217.12 280.835 C 216.661 282.432 216.442 283.504 216.478 284.029 C 216.5 284.401 216.646 284.445 216.755 284.445 L 216.777 284.445 C 216.88 284.438 217.069 284.365 217.405 284.044 C 217.667 283.796 217.893 283.519 218.09 283.22 C 218.302 282.877 218.499 282.519 218.674 282.155 C 218.885 281.732 219.06 281.352 219.214 281.032 C 219.265 280.915 219.308 280.827 219.345 280.754 C 219.345 280.747 219.352 280.747 219.352 280.74 C 219.564 279.85 219.812 279.113 220.096 278.544 C 220.424 277.873 220.797 277.428 221.19 277.209 C 221.584 276.99 222.124 276.866 222.817 276.823 L 222.817 276.823 C 222.904 276.815 222.977 276.881 222.985 276.961 C 222.985 276.968 222.985 276.968 222.985 276.976 C 222.992 277.056 222.948 277.144 222.861 277.253 C 222.372 277.786 221.898 278.727 221.438 280.054 C 220.979 281.382 220.782 282.498 220.833 283.387 C 220.862 283.796 220.964 284.008 221.139 284.008 L 221.154 284.008 C 221.584 283.978 222.131 283.446 222.766 282.417 C 223.386 281.44 223.875 280.389 224.225 279.288 C 224.268 279.142 224.327 278.938 224.407 278.661 C 224.487 278.384 224.546 278.201 224.575 278.099 C 224.604 277.997 224.663 277.851 224.736 277.669 C 224.786 277.523 224.859 277.392 224.947 277.268 C 225.005 277.202 225.093 277.115 225.195 277.005 C 225.297 276.896 225.414 276.815 225.552 276.772 C 225.895 276.67 226.245 276.604 226.603 276.575 L 227.412 276.524 C 227.449 276.509 227.493 276.531 227.507 276.567 C 227.522 276.604 227.5 276.648 227.464 276.662 L 227.449 276.677 C 227.084 276.961 226.727 277.64 226.391 278.697 C 226.114 279.595 225.88 280.426 225.698 281.163 C 225.516 281.899 225.399 282.352 225.355 282.512 C 225.312 282.673 225.217 283.067 225.071 283.665 C 224.961 284.117 224.867 284.489 224.786 284.788 C 224.772 284.824 224.786 284.868 224.823 284.883 C 224.845 284.89 224.874 284.89 224.896 284.868 C 225.691 284.394 226.42 283.825 227.084 283.176 C 227.456 282.804 230.279 279.668 230.41 281.659 L 230.425 281.746 Z M 203.415 272.731 C 203.13 272.745 202.627 273.183 201.868 275.138 C 201.343 276.487 200.832 278.026 200.344 279.718 C 200.329 279.762 200.358 279.799 200.395 279.813 C 200.424 279.821 200.46 279.813 200.482 279.784 C 201.795 277.778 202.707 276.108 203.188 274.802 C 203.487 273.912 203.626 273.321 203.611 273.059 C 203.59 272.738 203.465 272.738 203.429 272.738 L 203.415 272.731 Z M 222.358 286.48 C 222.372 286.444 222.35 286.4 222.314 286.385 C 222.299 286.378 222.285 286.378 222.27 286.385 C 221.876 286.466 221.482 286.531 221.096 286.626 C 220.549 286.757 219.717 286.889 219.294 287.348 C 219.287 287.356 219.287 287.363 219.279 287.37 C 219.206 287.531 219.192 287.786 219.206 288.107 C 219.221 288.333 219.44 288.545 219.63 288.698 C 219.805 288.836 220.031 288.902 220.249 288.88 C 221.11 288.814 221.818 288.012 222.358 286.48 Z M 209.315 277.093 L 209.315 277.093 C 209.782 277.071 210.366 276.896 210.504 276.203 C 210.57 275.889 210.38 275.532 210.264 275.429 C 210.147 275.327 209.987 275.284 209.775 275.298 C 209.564 275.313 209.308 275.444 209.067 275.67 C 208.746 275.969 208.761 276.4 208.863 276.684 C 208.958 276.925 209.126 277.085 209.315 277.093 Z" style="fill: rgb(255, 255, 255); opacity: 0.9;"/>
  <path class="st5" d="M 275.357 288.793 L 275.357 288.793 C 275.116 288.785 275.276 288.793 275.357 288.793 Z M 275.349 288.793 C 275.116 288.785 275.218 288.793 275.298 288.793 L 275.422 288.793 L 275.415 288.793 L 275.349 288.793 C 275.4 288.793 275.422 288.8 275.349 288.793 Z M 275.415 288.793 C 277.961 288.851 280.623 288.26 281.396 285.233 C 281.899 283.278 280.645 281.856 279.536 280.426 C 279.529 280.419 279.521 280.411 279.521 280.397 C 279.478 280.214 278.274 279.106 277.939 278.69 C 277.939 278.683 277.931 278.683 277.924 278.675 C 277.764 278.559 277.596 277.968 277.516 277.64 C 277.479 277.501 277.479 277.363 277.508 277.224 C 277.8 275.736 277.961 274.649 279.937 274.97 C 281.36 275.203 280.623 277.29 281.389 277.494 L 281.403 277.494 C 281.863 277.538 282.76 276.436 282.892 276.064 C 283.402 274.62 280.455 273.737 279.558 273.796 C 277.756 273.905 276.575 274.883 275.852 276.495 C 274.525 279.463 277.005 281.44 278.508 283.475 C 279.646 285.014 279.594 286.385 278.201 287.706 C 276.67 289.157 274.89 287.159 274.686 285.751 C 274.503 284.46 274.518 283.563 273.438 285.204 C 272.439 286.728 273.467 288.712 275.415 288.793 L 275.415 288.793 Z M 315.497 281.746 L 315.497 281.761 C 315.468 282.074 315.402 282.381 315.292 282.68 C 315.103 283.176 314.862 283.657 314.57 284.102 C 314.213 284.649 314.023 284.868 313.651 285.35 C 312.951 286.261 312.411 286.94 311.594 287.808 C 310.456 289.011 309.187 290.39 307.801 291.375 C 305.825 292.79 303.33 293.176 300.967 293.395 C 294.052 294.022 283.876 294.956 281.732 302.44 C 281.717 302.484 281.681 302.506 281.637 302.491 C 281.615 302.484 281.6 302.476 281.593 302.455 C 279.492 298.866 274.977 296.233 270.79 296.357 C 270.747 296.364 270.71 296.342 270.703 296.298 C 270.696 296.254 270.717 296.218 270.761 296.211 C 281.542 290.857 292.556 293.424 304.198 291.346 C 307.108 290.828 309.552 288.916 311.31 286.619 C 311.981 285.751 312.842 285.014 313.432 284.088 C 313.527 283.935 314.016 282.716 313.257 283.234 C 312.083 284.029 311.091 285.014 309.814 285.634 C 309.756 285.663 309.69 285.692 309.625 285.714 C 309.603 285.722 309.588 285.743 309.581 285.765 C 309.399 286.363 309.143 286.94 308.815 287.472 C 308.428 288.078 307.911 288.596 307.298 288.982 C 306.729 289.361 306.065 289.58 305.387 289.631 C 305.292 289.639 305.204 289.639 305.11 289.639 C 304.57 289.639 304.22 289.595 303.804 289.383 C 303.272 289.106 303.104 288.654 303.067 288.107 C 303.045 287.779 303.25 287.421 303.417 287.151 C 303.585 286.881 303.855 286.582 304.045 286.502 L 304.059 286.495 C 305.007 285.795 306.62 285.743 307.714 285.445 C 307.743 285.437 307.765 285.415 307.765 285.393 L 308.312 283.395 C 308.326 283.351 308.297 283.315 308.261 283.3 C 308.232 283.293 308.195 283.307 308.18 283.329 C 307.903 283.738 307.597 284.124 307.269 284.489 C 306.838 284.941 306.503 285.218 306.248 285.32 C 305.956 285.43 305.649 285.495 305.343 285.51 C 304.978 285.532 304.665 285.386 304.424 285.08 C 304.183 284.774 304.052 284.321 304.023 283.723 C 304.015 283.628 304.015 283.519 304.023 283.402 C 304.03 283.358 304.008 283.322 303.972 283.307 C 303.928 283.3 303.891 283.322 303.877 283.358 C 303.76 283.585 303.643 283.796 303.527 283.986 C 303.184 284.584 302.754 285.131 302.265 285.62 C 301.783 286.101 301.317 286.356 300.886 286.385 C 300.077 286.436 299.639 285.977 299.581 285.014 C 299.522 284.095 299.887 282.206 300.675 279.39 C 300.719 279.266 300.733 279.135 300.726 279.011 C 300.711 278.756 300.565 278.654 300.266 278.675 C 299.923 278.705 299.595 278.843 299.325 279.069 C 298.99 279.354 298.713 279.704 298.516 280.098 C 298.275 280.535 298.064 280.988 297.866 281.447 C 297.662 281.951 297.494 282.476 297.363 283.008 C 297.217 283.599 297.093 284.095 297.013 284.482 C 296.925 284.883 296.845 285.306 296.765 285.743 C 296.707 286.05 296.641 286.429 296.627 286.488 L 296.612 286.546 L 294.606 286.677 L 294.599 286.604 C 294.584 286.429 294.73 285.809 295.022 284.722 C 294.963 284.824 294.905 284.927 294.847 285.029 C 294.504 285.627 294.081 286.174 293.592 286.663 C 293.111 287.144 292.644 287.399 292.213 287.429 C 292.184 287.429 292.155 287.429 292.126 287.429 C 291.419 287.429 291.017 286.874 290.951 285.78 C 290.937 285.561 290.93 285.342 290.937 285.116 C 290.944 285.072 290.922 285.036 290.886 285.021 C 290.842 285.014 290.806 285.036 290.791 285.072 C 289.69 287.093 288.698 288.114 287.779 288.173 C 286.969 288.223 286.531 287.742 286.466 286.736 C 286.393 285.62 286.699 283.986 287.377 281.885 C 287.523 281.367 287.589 281.01 287.574 280.82 C 287.552 280.528 287.421 280.492 287.312 280.492 L 287.282 280.492 C 287.188 280.499 286.984 280.557 286.553 280.827 C 286.174 281.075 285.846 281.382 285.576 281.739 C 285.262 282.148 285.014 282.607 284.832 283.088 C 284.642 283.599 284.489 284.044 284.379 284.416 C 284.27 284.788 284.161 285.247 284.051 285.773 C 283.942 286.298 283.847 286.75 283.76 287.086 C 283.672 287.421 283.585 287.808 283.497 288.253 L 283.482 288.311 L 281.557 288.435 C 281.513 288.435 281.476 288.406 281.476 288.362 C 281.476 288.355 281.476 288.348 281.476 288.333 L 281.476 288.333 C 281.761 287.348 282.162 285.751 282.673 283.592 C 283.183 281.433 283.65 279.704 284.029 278.464 C 284.358 277.384 284.744 276.319 285.197 275.291 C 285.547 274.488 286.021 273.737 286.597 273.074 C 287.144 272.461 287.757 272.133 288.406 272.089 C 289.092 272.045 289.456 272.388 289.507 273.096 C 289.537 273.569 289.398 274.204 289.099 274.999 C 288.552 276.407 287.64 278.048 286.378 279.879 C 286.349 279.908 286.349 279.959 286.378 279.988 C 286.407 280.018 286.458 280.018 286.488 279.988 C 286.706 279.821 286.94 279.668 287.188 279.543 C 287.552 279.354 287.954 279.244 288.369 279.208 C 289.15 279.157 289.566 279.514 289.617 280.266 C 289.639 280.543 289.609 280.82 289.529 281.082 C 289.456 281.323 289.376 281.608 289.281 281.921 C 289.194 282.235 289.121 282.498 289.062 282.694 C 289.004 282.899 288.931 283.169 288.836 283.512 C 288.741 283.854 288.669 284.153 288.625 284.387 C 288.493 284.978 288.442 285.452 288.464 285.795 C 288.493 286.232 288.669 286.232 288.727 286.232 L 288.749 286.232 C 289.485 286.188 290.353 284.905 291.338 282.425 C 291.346 282.41 291.346 282.403 291.353 282.388 C 291.579 281.571 291.863 280.769 292.206 279.996 C 292.615 279.098 293.111 278.624 293.694 278.588 L 294.861 278.53 C 294.905 278.53 294.941 278.559 294.941 278.602 C 294.941 278.624 294.934 278.646 294.92 278.661 L 294.92 278.661 C 294.737 278.836 294.497 279.303 294.205 280.054 C 293.899 280.864 293.687 281.418 293.548 281.79 C 293.41 282.177 293.249 282.702 293.081 283.358 C 292.914 284.015 292.841 284.54 292.87 284.934 C 292.906 285.452 293.103 285.452 293.169 285.452 L 293.191 285.452 C 293.293 285.445 293.483 285.372 293.826 285.058 C 294.088 284.817 294.314 284.547 294.504 284.248 C 294.679 283.964 294.868 283.606 295.08 283.169 C 295.292 282.731 295.474 282.352 295.627 282.031 C 295.795 281.688 295.861 281.571 295.904 281.528 L 295.999 281.352 C 296.357 279.908 296.524 278.894 296.488 278.332 C 296.488 278.238 296.466 278.143 296.422 278.055 L 296.422 278.055 C 296.4 278.026 296.4 277.975 296.437 277.953 C 296.452 277.946 296.466 277.939 296.481 277.939 L 297.29 277.888 C 297.764 277.859 298.064 277.888 298.217 277.99 C 298.37 278.092 298.465 278.26 298.472 278.435 C 298.472 278.61 298.457 278.792 298.421 278.967 C 298.414 279.011 298.443 279.047 298.487 279.055 C 298.508 279.062 298.537 279.047 298.552 279.033 C 299.464 278.085 300.412 277.574 301.39 277.516 C 302.17 277.465 302.593 277.837 302.637 278.617 C 302.651 278.865 302.637 279.113 302.586 279.361 C 302.535 279.609 302.411 280.091 302.192 280.835 C 301.733 282.432 301.514 283.504 301.55 284.029 C 301.572 284.401 301.718 284.445 301.827 284.445 L 301.849 284.445 C 301.951 284.438 302.141 284.365 302.476 284.044 C 302.739 283.796 302.965 283.519 303.162 283.22 C 303.374 282.877 303.57 282.519 303.746 282.155 C 303.957 281.732 304.132 281.352 304.285 281.032 C 304.336 280.915 304.38 280.827 304.417 280.754 C 304.417 280.747 304.424 280.747 304.424 280.74 C 304.636 279.85 304.884 279.113 305.168 278.544 C 305.496 277.873 305.868 277.428 306.262 277.209 C 306.656 276.99 307.196 276.866 307.889 276.823 L 307.889 276.823 C 307.976 276.815 308.049 276.881 308.057 276.961 C 308.057 276.968 308.057 276.968 308.057 276.976 C 308.064 277.056 308.02 277.144 307.932 277.253 C 307.444 277.786 306.97 278.727 306.51 280.054 C 306.05 281.382 305.854 282.498 305.905 283.387 C 305.934 283.796 306.036 284.008 306.211 284.008 L 306.226 284.008 C 306.656 283.978 307.203 283.446 307.838 282.417 C 308.458 281.44 308.946 280.389 309.296 279.288 C 309.34 279.142 309.399 278.938 309.479 278.661 C 309.559 278.384 309.617 278.201 309.647 278.099 C 309.676 277.997 309.734 277.851 309.807 277.669 C 309.858 277.523 309.931 277.392 310.019 277.268 C 310.077 277.202 310.165 277.115 310.267 277.005 C 310.369 276.896 310.485 276.815 310.624 276.772 C 310.967 276.67 311.317 276.604 311.674 276.575 L 312.484 276.524 C 312.52 276.509 312.564 276.531 312.579 276.567 C 312.593 276.604 312.572 276.648 312.535 276.662 L 312.52 276.677 C 312.156 276.961 311.799 277.64 311.463 278.697 C 311.186 279.595 310.952 280.426 310.77 281.163 C 310.588 281.899 310.471 282.352 310.427 282.512 C 310.383 282.673 310.288 283.067 310.143 283.665 C 310.033 284.117 309.938 284.489 309.858 284.788 C 309.844 284.824 309.858 284.868 309.895 284.883 C 309.917 284.89 309.946 284.89 309.967 284.868 C 310.763 284.394 311.492 283.825 312.156 283.176 C 312.528 282.804 315.351 279.668 315.482 281.659 L 315.497 281.746 Z M 288.486 272.731 C 288.202 272.745 287.698 273.183 286.94 275.138 C 286.415 276.487 285.904 278.026 285.415 279.718 C 285.401 279.762 285.43 279.799 285.466 279.813 C 285.495 279.821 285.532 279.813 285.554 279.784 C 286.867 277.778 287.779 276.108 288.26 274.802 C 288.559 273.912 288.698 273.321 288.683 273.059 C 288.661 272.738 288.537 272.738 288.501 272.738 L 288.486 272.731 Z M 307.429 286.48 C 307.444 286.444 307.422 286.4 307.385 286.385 C 307.371 286.378 307.356 286.378 307.342 286.385 C 306.948 286.466 306.554 286.531 306.167 286.626 C 305.62 286.757 304.789 286.889 304.366 287.348 C 304.358 287.356 304.358 287.363 304.351 287.37 C 304.278 287.531 304.263 287.786 304.278 288.107 C 304.293 288.333 304.511 288.545 304.701 288.698 C 304.876 288.836 305.102 288.902 305.321 288.88 C 306.182 288.814 306.889 288.012 307.429 286.48 Z M 294.387 277.093 L 294.387 277.093 C 294.854 277.071 295.438 276.896 295.576 276.203 C 295.642 275.889 295.452 275.532 295.335 275.429 C 295.219 275.327 295.058 275.284 294.847 275.298 C 294.635 275.313 294.38 275.444 294.139 275.67 C 293.818 275.969 293.833 276.4 293.935 276.684 C 294.03 276.925 294.197 277.085 294.387 277.093 Z" style="fill: rgb(255, 255, 255); opacity: 0.9;"/>
</svg>